<svg width="568" height="122" viewBox="0 0 568 122" fill="none" xmlns="http://www.w3.org/2000/svg">
<path fill-rule="evenodd" clip-rule="evenodd" d="M180.073 49.7442L173.253 29.0977H169.878L162.99 49.7442L156.103 29.0977H151.212L161.2 59.0351H164.575L171.463 38.3886L178.351 59.0351H181.726L191.851 29.0977H187.029L180.073 49.7442Z" fill="white"/>
<path d="M215.201 29.0977H210.448V59.0351H215.201V29.0977Z" fill="white"/>
<path fill-rule="evenodd" clip-rule="evenodd" d="M240.893 29.0977H236.14V59.0351H254.6V54.9746H240.893V29.0977Z" fill="white"/>
<path fill-rule="evenodd" clip-rule="evenodd" d="M278.019 29.0977H273.266V59.0351H291.795V54.9746H278.019V29.0977Z" fill="white"/>
<path fill-rule="evenodd" clip-rule="evenodd" d="M335.602 33.0894C334.156 31.713 332.434 30.6118 330.436 29.8548C328.439 29.0977 326.235 28.6848 323.893 28.6848C321.551 28.6848 319.484 29.0977 317.487 29.8548C315.489 30.6118 313.767 31.713 312.321 33.0894C310.875 34.4658 309.704 36.1175 308.877 37.9757C308.05 39.8339 307.637 41.8986 307.637 44.032C307.637 46.1655 308.05 48.299 308.877 50.1571C309.704 52.0153 310.875 53.667 312.321 55.0435C313.767 56.4199 315.558 57.5211 317.487 58.2781C319.484 59.0351 321.62 59.4481 323.893 59.4481C326.166 59.4481 328.301 59.0351 330.23 58.2781C332.227 57.5211 333.949 56.4199 335.396 54.9747C336.842 53.5982 338.013 51.9465 338.908 50.0883C339.735 48.2301 340.148 46.1655 340.148 43.9632C340.148 41.7609 339.735 39.7651 338.908 37.9069C338.082 36.0487 336.911 34.397 335.464 33.0206H335.602V33.0894ZM335.533 43.9632C335.533 45.6149 335.258 47.1978 334.638 48.5742C334.018 49.9507 333.191 51.1206 332.158 52.153C331.125 53.1853 329.885 53.9423 328.508 54.4929C325.752 55.594 322.24 55.594 319.484 54.4929C318.107 53.9423 316.798 53.1165 315.765 52.153C314.732 51.1895 313.905 49.9507 313.285 48.5742C312.665 47.1978 312.39 45.6837 312.39 44.032C312.39 42.3803 312.665 40.9351 313.285 39.5586C313.836 38.1822 314.663 37.0122 315.696 35.9799C316.729 35.0164 317.969 34.1905 319.347 33.64C320.724 33.0894 322.309 32.8141 323.962 32.8141C325.615 32.8141 327.199 33.0894 328.645 33.64C330.023 34.1905 331.332 35.0164 332.365 35.9799C333.398 36.9434 334.225 38.1822 334.776 39.4898C335.327 40.8662 335.671 42.3115 335.671 43.9632H335.533Z" fill="white"/>
<path fill-rule="evenodd" clip-rule="evenodd" d="M390.912 29.0977H389.19L382.234 49.7442L375.414 29.0977H372.039L365.151 49.7442L358.264 29.0977H353.442L363.361 59.0351H366.736L373.624 38.3886L380.512 59.0351H383.887L392.634 33.1582H413.229V59.0351H417.982V33.1582H427.418L429.278 29.0977H394.012H390.912Z" fill="white"/>
<path fill-rule="evenodd" clip-rule="evenodd" d="M457.037 46.2343C458.345 45.8214 459.516 45.202 460.481 44.445C461.514 43.6879 462.271 42.7244 462.891 41.6233C463.511 40.5221 463.787 39.2833 463.787 37.9069C463.787 36.5305 463.511 35.3605 462.891 34.2594C462.34 33.1582 461.514 32.1947 460.481 31.4377C459.516 30.6806 458.276 30.0613 456.968 29.6483C455.659 29.2354 454.213 29.0289 452.697 29.0289H442.779V58.9663H447.531V46.7161L459.93 58.9663H466.266L453.868 46.7849C454.97 46.7849 456.003 46.5096 456.968 46.2343H457.037ZM458.483 36.0487C458.827 36.5993 458.965 37.2187 458.965 37.9069C458.965 38.5951 458.827 39.4898 458.483 40.178C458.139 40.7974 457.725 41.348 457.105 41.7609C456.486 42.1739 455.728 42.518 454.901 42.7932C454.075 42.9997 453.11 43.1374 452.146 43.1374H447.6V33.227H452.422C453.386 33.227 454.35 33.3647 455.108 33.5712C455.935 33.7776 456.623 34.1217 457.174 34.6035C457.725 35.0164 458.139 35.4982 458.483 36.1176V36.0487Z" fill="white"/>
<path fill-rule="evenodd" clip-rule="evenodd" d="M488.79 45.8214H502.084V41.7609H488.79V33.1582H502.979V29.0977H484.037V59.0351H503.806V54.9746H488.79V45.8214Z" fill="white"/>
<path fill-rule="evenodd" clip-rule="evenodd" d="M528.327 45.8214H541.551V41.7609H528.327V33.1582H542.447V29.0977H523.574V59.0351H543.273V54.9746H528.327V45.8214Z" fill="white"/>
<path fill-rule="evenodd" clip-rule="evenodd" d="M567.519 32.3323C567.175 31.6441 566.761 31.0247 566.21 30.4741C565.659 29.9236 565.039 29.5106 564.282 29.2354C562.766 28.616 561.044 28.616 559.598 29.2354C558.84 29.5106 558.22 29.9236 557.669 30.4741C557.118 31.0247 556.705 31.5753 556.361 32.3323C556.016 33.0205 555.878 33.7776 555.878 34.5346C555.878 35.2917 556.016 36.0487 556.361 36.7369C556.705 37.4251 557.118 38.0445 557.669 38.5951C558.22 39.1457 558.84 39.5586 559.598 39.8339C560.356 40.1092 561.113 40.3156 561.94 40.3156C562.766 40.3156 563.524 40.178 564.282 39.8339C565.039 39.5586 565.659 39.1457 566.21 38.5951C566.761 38.0445 567.175 37.4939 567.519 36.7369C567.863 36.0487 568.001 35.2917 568.001 34.5346C568.001 33.7776 567.863 33.0205 567.519 32.3323ZM566.417 36.3928C566.141 36.9434 565.797 37.4251 565.384 37.8381L562.904 35.0852C563.042 35.0852 563.18 35.0852 563.248 34.9475C563.524 34.9475 563.731 34.6723 563.937 34.5346C564.144 34.3282 564.282 34.1217 564.419 33.9152C564.557 33.6399 564.557 33.3647 564.557 33.0894C564.557 32.8141 564.557 32.5388 564.419 32.2635C564.282 31.9882 564.144 31.7818 563.937 31.5753C563.731 31.3688 563.455 31.2312 563.18 31.1624C562.904 31.0247 562.56 31.0247 562.215 31.0247H559.736V37.8381H561.182V35.2228L563.455 37.7692H565.246C564.833 38.1133 564.351 38.4575 563.8 38.6639C562.629 39.1457 561.251 39.1457 560.08 38.6639C559.529 38.4575 558.978 38.1133 558.565 37.7004C558.151 37.2875 557.807 36.8057 557.531 36.2552C557.256 35.7046 557.118 35.0852 557.118 34.4658C557.118 33.8464 557.256 33.227 557.531 32.6764C557.807 32.1259 558.151 31.6441 558.565 31.2312C558.978 30.8183 559.529 30.4741 560.08 30.2677C560.631 30.0612 561.251 29.9236 561.94 29.9236C562.629 29.9236 563.249 30.0612 563.8 30.2677C564.351 30.4741 564.902 30.8183 565.315 31.2312C565.728 31.6441 566.073 32.1259 566.348 32.6764C566.624 33.227 566.692 33.8464 566.692 34.4658C566.692 35.0852 566.555 35.7046 566.348 36.2552V36.3928H566.417ZM562.766 33.7776C562.56 33.9152 562.353 34.0529 562.009 34.0529H561.113V32.4012H562.491C562.629 32.4012 562.697 32.5388 562.766 32.6076C562.766 32.6076 562.904 32.7453 562.973 32.8829V33.1582C562.973 33.4335 562.973 33.6399 562.697 33.8464V33.7088L562.766 33.7776Z" fill="white"/>
<path d="M164.575 89.1102C164.575 88.2843 164.299 87.7337 163.817 87.3208C163.335 86.9079 162.715 86.7702 161.888 86.7702C161.062 86.7702 160.717 86.9079 160.166 87.1143C159.615 87.3208 159.202 87.6649 158.789 88.009L157.687 86.6326C158.238 86.1508 158.858 85.7379 159.615 85.4626C160.373 85.1873 161.2 85.0497 162.095 85.0497C162.99 85.0497 163.541 85.1873 164.093 85.3938C164.644 85.6003 165.126 85.9444 165.47 86.2885C165.815 86.7014 166.09 87.1143 166.297 87.5961C166.503 88.0778 166.572 88.6972 166.572 89.2478V95.0976C166.572 95.5106 166.572 95.8547 166.71 96.0611H164.781C164.644 95.5794 164.575 95.0288 164.575 94.5471C164.161 95.0976 163.679 95.5794 163.059 95.8547C162.439 96.1988 161.751 96.3364 160.924 96.3364C160.098 96.3364 160.029 96.3364 159.615 96.1988C159.133 96.0611 158.72 95.9235 158.376 95.6482C157.962 95.3729 157.687 95.0288 157.411 94.6159C157.136 94.2029 157.067 93.6524 157.067 93.033C157.067 92.4136 157.273 91.5877 157.756 91.106C158.169 90.6242 158.789 90.2801 159.478 90.0048C160.166 89.7295 160.993 89.5919 161.888 89.5231C162.784 89.4543 163.679 89.3854 164.575 89.3854V89.1102ZM164.024 90.9683H162.371C161.82 90.9683 161.268 91.106 160.855 91.2436C160.373 91.3813 160.029 91.5877 159.684 91.863C159.409 92.1383 159.202 92.4824 159.202 92.9642C159.202 93.4459 159.202 93.5147 159.409 93.79C159.615 94.0653 159.684 94.203 159.891 94.3406C160.098 94.4782 160.304 94.5471 160.58 94.6159C160.855 94.6159 161.131 94.6847 161.406 94.6847C162.439 94.6847 163.197 94.4094 163.679 93.79C164.23 93.1706 164.506 92.4136 164.506 91.5189V90.9683H163.955H164.024Z" fill="white"/>
<path d="M181.381 96.13H179.108V82.0216H173.942V80.0258H186.478V82.0216H181.312V96.13H181.381Z" fill="white"/>
<path d="M191.713 94.1342H200.116V96.13H189.44V80.0258H199.772V82.0216H191.713V86.8391H199.29V88.7661H191.713V94.1342Z" fill="white"/>
<path d="M206.247 94.1342H213.41V96.13H203.974V80.0258H206.247V94.1342Z" fill="white"/>
<path d="M222.02 96.5429C220.987 96.5429 220.023 96.3365 219.265 95.9924C218.507 95.6483 217.818 95.1665 217.336 94.5471C216.854 93.9277 216.441 93.3083 216.165 92.4825C215.89 91.7254 215.821 90.8996 215.821 90.1425V80.0258H218.094V90.0049C218.094 90.5555 218.094 91.106 218.301 91.6566C218.438 92.2072 218.645 92.6889 218.989 93.1019C219.334 93.5148 219.678 93.8589 220.229 94.1342C220.711 94.4095 221.4 94.5471 222.158 94.5471C222.916 94.5471 223.535 94.4095 224.018 94.1342C224.5 93.8589 224.913 93.5148 225.257 93.1019C225.602 92.6889 225.808 92.2072 225.946 91.6566C226.084 91.106 226.153 90.5555 226.153 90.0049V80.0258H228.426V90.1425C228.426 90.9684 228.288 91.7254 228.081 92.4825C227.806 93.2395 227.462 93.9277 226.911 94.5471C226.428 95.1665 225.74 95.5794 224.982 95.9924C224.224 96.3365 223.26 96.5429 222.227 96.5429H222.02Z" fill="white"/>
<path d="M240.962 82.985C240.617 82.5721 240.204 82.1592 239.653 81.8839C239.102 81.6086 238.482 81.471 237.793 81.471C237.105 81.471 237.036 81.471 236.691 81.6086C236.347 81.7463 236.003 81.8839 235.658 82.0904C235.383 82.2968 235.107 82.5721 234.901 82.9162C234.694 83.2603 234.625 83.6044 234.625 84.0862C234.625 84.5679 234.694 84.912 234.901 85.1873C235.107 85.4626 235.314 85.7379 235.589 85.9444C235.865 86.1508 236.209 86.3573 236.622 86.4949C237.036 86.6326 237.449 86.7702 237.931 86.9079C238.482 87.0455 239.033 87.252 239.584 87.4584C240.135 87.6649 240.686 87.9402 241.1 88.2843C241.513 88.6284 241.926 89.0413 242.202 89.5919C242.477 90.1425 242.615 90.7619 242.615 91.5877C242.615 92.4136 242.477 93.1706 242.133 93.79C241.788 94.4094 241.375 94.8912 240.893 95.3041C240.411 95.717 239.791 95.9923 239.102 96.1988C238.413 96.4052 237.725 96.4741 237.036 96.4741C236.003 96.4741 235.038 96.2676 234.074 95.8547C233.11 95.4417 232.352 94.8912 231.732 94.1341L233.454 92.6889C233.798 93.2395 234.349 93.7212 234.969 94.0653C235.589 94.4094 236.278 94.6159 237.036 94.6159C237.793 94.6159 237.793 94.6159 238.138 94.4782C238.482 94.3406 238.896 94.203 239.171 93.9965C239.515 93.79 239.722 93.5147 239.929 93.1706C240.135 92.8265 240.204 92.4136 240.204 91.9318C240.204 91.4501 240.135 91.0372 239.929 90.6931C239.722 90.349 239.447 90.0737 239.102 89.8672C238.758 89.6607 238.344 89.4543 237.862 89.3166C237.38 89.179 236.898 88.9725 236.416 88.8349C235.934 88.6972 235.383 88.4908 234.901 88.2843C234.418 88.0778 233.936 87.8026 233.592 87.4584C233.179 87.1143 232.903 86.7014 232.628 86.2197C232.352 85.7379 232.283 85.1185 232.283 84.3615C232.283 83.6044 232.421 82.8474 232.765 82.2968C233.11 81.7463 233.523 81.2645 234.005 80.8516C234.556 80.4386 235.107 80.1634 235.796 80.0257C236.485 79.8192 237.105 79.7504 237.793 79.7504C238.482 79.7504 239.584 79.8881 240.411 80.2322C241.237 80.5763 241.857 80.9892 242.408 81.5398L240.824 83.0539H240.962V82.985Z" fill="white"/>
<path d="M253.222 80.0257H258.733C259.766 80.0257 260.799 80.1634 261.832 80.5075C262.866 80.7828 263.761 81.2645 264.656 81.9527C265.483 82.5721 266.172 83.4668 266.654 84.4303C267.136 85.4626 267.412 86.6326 267.412 88.0779C267.412 89.5231 267.136 90.6242 266.654 91.6566C266.172 92.6889 265.483 93.5148 264.656 94.1342C263.83 94.7535 262.866 95.3041 261.832 95.5794C260.799 95.9235 259.766 96.0612 258.733 96.0612H253.222V79.9569V80.0257ZM255.495 94.1342H258.319C259.284 94.1342 260.179 93.9965 261.006 93.7212C261.832 93.4459 262.521 93.033 263.141 92.5513C263.761 92.0695 264.174 91.3813 264.519 90.6242C264.863 89.8672 265.001 89.0414 265.001 88.0779C265.001 87.1144 264.863 86.2197 264.519 85.4626C264.174 84.7056 263.692 84.0862 263.141 83.5356C262.521 83.0539 261.832 82.641 261.006 82.3657C260.179 82.0904 259.284 81.9527 258.319 81.9527H255.495V94.1342Z" fill="white"/>
<path d="M273.748 81.471C273.748 81.8839 273.611 82.1592 273.335 82.4345C273.06 82.7098 272.715 82.8474 272.302 82.8474C271.889 82.8474 271.613 82.7098 271.338 82.4345C271.062 82.1592 270.924 81.8151 270.924 81.471C270.924 81.1269 271.062 80.7828 271.338 80.5075C271.613 80.2322 271.958 80.0945 272.302 80.0945C272.646 80.0945 273.06 80.2322 273.335 80.5075C273.611 80.7828 273.748 81.1269 273.748 81.471ZM273.404 96.13H271.269V85.3938H273.404V96.13Z" fill="white"/>
<path d="M278.846 97.9193C279.328 98.4699 279.879 98.8829 280.636 99.1581C281.394 99.4334 282.083 99.6399 282.841 99.6399C283.598 99.6399 284.149 99.5711 284.631 99.3646C285.114 99.1581 285.527 98.8828 285.802 98.5387C286.078 98.1946 286.285 97.7817 286.422 97.3C286.56 96.8182 286.629 96.2676 286.629 95.7171V94.3406C286.216 94.96 285.665 95.4418 285.045 95.7171C284.356 96.0612 283.667 96.1988 282.841 96.1988C282.014 96.1988 281.256 96.0612 280.568 95.7859C279.879 95.5106 279.328 95.0977 278.846 94.6159C278.363 94.1342 278.019 93.5148 277.743 92.8266C277.468 92.1383 277.33 91.4501 277.33 90.6243C277.33 89.7984 277.468 89.1102 277.743 88.422C278.019 87.7338 278.363 87.1144 278.846 86.6326C279.328 86.1509 279.879 85.7379 280.568 85.3938C281.256 85.1185 281.945 84.9809 282.772 84.9809C283.598 84.9809 284.287 85.1185 284.976 85.4626C285.665 85.8068 286.216 86.2885 286.629 86.9767V85.2562H288.695V95.5106C288.695 96.2676 288.626 97.0247 288.42 97.7817C288.213 98.4699 287.869 99.1581 287.387 99.7087C286.904 100.259 286.285 100.672 285.527 101.016C284.769 101.36 283.805 101.498 282.703 101.498C281.601 101.498 280.843 101.36 279.879 101.016C278.914 100.672 278.088 100.19 277.468 99.5711L278.846 97.9193ZM279.465 90.6243C279.465 91.106 279.534 91.5878 279.672 92.0695C279.81 92.5513 280.085 92.8954 280.361 93.2395C280.705 93.5836 281.05 93.8589 281.463 94.0653C281.876 94.2718 282.427 94.4094 282.978 94.4094C283.529 94.4094 284.011 94.3406 284.494 94.1342C284.976 93.9277 285.32 93.6524 285.665 93.3083C286.009 92.9642 286.216 92.5513 286.422 92.1383C286.629 91.6566 286.698 91.1748 286.698 90.6243C286.698 90.0737 286.629 89.5919 286.422 89.179C286.216 88.6973 286.009 88.3531 285.665 88.009C285.32 87.6649 284.976 87.3896 284.494 87.1832C284.011 86.9767 283.529 86.9079 282.978 86.9079C282.427 86.9079 281.945 86.9079 281.463 87.1832C280.981 87.4585 280.636 87.6649 280.361 88.009C280.016 88.3531 279.81 88.7661 279.672 89.2478C279.534 89.7296 279.465 90.2113 279.465 90.6931V90.6243Z" fill="white"/>
<path d="M295.721 81.471C295.721 81.8839 295.583 82.1592 295.308 82.4345C295.032 82.7098 294.688 82.8474 294.275 82.8474C293.861 82.8474 293.586 82.7098 293.31 82.4345C293.035 82.1592 292.897 81.8151 292.897 81.471C292.897 81.1269 293.035 80.7828 293.31 80.5075C293.586 80.2322 293.93 80.0945 294.275 80.0945C294.619 80.0945 295.032 80.2322 295.308 80.5075C295.583 80.7828 295.721 81.1269 295.721 81.471ZM295.377 96.13H293.241V85.3938H295.377V96.13Z" fill="white"/>
<path d="M305.157 87.1144H302.265V92.6889C302.265 93.3083 302.402 93.79 302.609 94.0653C302.884 94.3406 303.229 94.4783 303.78 94.4783H304.4C304.606 94.4783 304.813 94.3406 305.02 94.2718V95.9923C304.813 96.0612 304.538 96.13 304.262 96.1988C303.918 96.1988 303.642 96.2676 303.298 96.2676C302.265 96.2676 301.507 95.9923 300.956 95.4418C300.405 94.8912 300.129 94.0653 300.129 92.8954V87.0455H298.063V85.325H300.129V82.228H302.265V85.325H305.157V87.0455V87.1144Z" fill="white"/>
<path d="M314.938 89.1102C314.938 88.2843 314.663 87.7337 314.181 87.3208C313.699 86.9079 313.079 86.7702 312.252 86.7702C311.425 86.7702 311.081 86.9079 310.53 87.1143C309.979 87.3208 309.566 87.6649 309.152 88.009L308.05 86.6326C308.601 86.1508 309.221 85.7379 309.979 85.4626C310.737 85.1873 311.563 85.0497 312.459 85.0497C313.354 85.0497 313.905 85.1873 314.456 85.3938C315.007 85.6003 315.489 85.9444 315.834 86.2885C316.178 86.7014 316.454 87.1143 316.66 87.5961C316.867 88.0778 316.936 88.6972 316.936 89.2478V95.0976C316.936 95.5106 316.936 95.8547 317.074 96.0611H315.145C315.007 95.5794 314.938 95.0288 314.938 94.5471C314.525 95.0976 314.043 95.5794 313.423 95.8547C312.803 96.1988 312.114 96.3364 311.288 96.3364C310.461 96.3364 310.392 96.3364 309.979 96.1988C309.497 96.0611 309.084 95.9235 308.739 95.6482C308.326 95.3729 308.05 95.0288 307.775 94.6159C307.499 94.2029 307.43 93.6524 307.43 93.033C307.43 92.4136 307.637 91.5877 308.119 91.106C308.533 90.6242 309.152 90.2801 309.841 90.0048C310.53 89.7295 311.357 89.5919 312.252 89.5231C313.147 89.4543 314.043 89.3854 314.938 89.3854V89.1102ZM314.387 90.9683H312.734C312.183 90.9683 311.632 91.106 311.219 91.2436C310.737 91.3813 310.392 91.5877 310.048 91.863C309.772 92.1383 309.566 92.4824 309.566 92.9642C309.566 93.4459 309.566 93.5147 309.772 93.79C309.979 94.0653 310.048 94.203 310.255 94.3406C310.461 94.4782 310.668 94.5471 310.943 94.6159C311.219 94.6159 311.494 94.6847 311.77 94.6847C312.803 94.6847 313.561 94.4094 314.043 93.79C314.594 93.1706 314.869 92.4136 314.869 91.5189V90.9683H314.318H314.387Z" fill="white"/>
<path d="M323.548 96.13H321.413V78.9934H323.548V96.13Z" fill="white"/>
<path d="M348.552 93.5836C347.932 94.4782 347.105 95.1665 346.072 95.717C345.039 96.2676 343.868 96.5429 342.421 96.5429C340.975 96.5429 340.079 96.3364 339.046 95.9235C338.013 95.5106 337.118 94.8912 336.36 94.203C335.602 93.4459 335.051 92.5512 334.569 91.5189C334.156 90.4866 333.949 89.3166 333.949 88.0778C333.949 86.8391 334.156 85.6691 334.569 84.6368C334.982 83.6044 335.602 82.7098 336.36 81.9527C337.118 81.1957 338.013 80.6451 339.046 80.2322C340.079 79.8193 341.25 79.6128 342.421 79.6128C343.592 79.6128 343.523 79.6128 344.074 79.7504C344.625 79.8881 345.176 80.0257 345.659 80.2322C346.141 80.4387 346.623 80.7139 347.036 80.9892C347.449 81.3333 347.794 81.6774 348.138 82.0904L346.347 83.4668C345.934 82.9162 345.383 82.5033 344.694 82.0904C344.005 81.7463 343.179 81.5398 342.352 81.5398C341.526 81.5398 340.562 81.6774 339.804 82.0215C339.046 82.3657 338.426 82.8474 337.875 83.398C337.324 84.0174 336.911 84.7056 336.635 85.4626C336.36 86.2197 336.222 87.0455 336.222 87.9402C336.222 88.8349 336.36 89.7296 336.635 90.4866C336.911 91.2436 337.324 91.9319 337.806 92.5512C338.357 93.1018 338.977 93.5836 339.735 93.9277C340.493 94.2718 341.319 94.4094 342.215 94.4094C343.11 94.4094 343.937 94.203 344.694 93.8589C345.452 93.5148 346.072 92.9642 346.554 92.276L348.345 93.5148H348.552V93.5836Z" fill="white"/>
<path d="M362.258 90.693C362.258 91.5189 362.121 92.2759 361.845 92.9642C361.57 93.6524 361.156 94.2718 360.605 94.7535C360.054 95.2353 359.434 95.6482 358.746 95.9235C358.057 96.1988 357.299 96.3364 356.473 96.3364C355.646 96.3364 354.888 96.1988 354.2 95.9235C353.511 95.6482 352.891 95.2353 352.34 94.7535C351.858 94.2718 351.444 93.6524 351.1 92.9642C350.825 92.2759 350.687 91.5189 350.687 90.693C350.687 89.8672 350.825 89.1102 351.1 88.4219C351.376 87.7337 351.789 87.1143 352.34 86.6326C352.822 86.1508 353.442 85.7379 354.2 85.4626C354.888 85.1873 355.646 85.0497 356.473 85.0497C357.299 85.0497 358.057 85.1873 358.746 85.4626C359.434 85.7379 360.054 86.1508 360.605 86.6326C361.156 87.1143 361.57 87.7337 361.845 88.4219C362.121 89.1102 362.258 89.8672 362.258 90.693ZM359.985 90.693C359.985 90.2113 359.985 89.6607 359.779 89.2478C359.641 88.766 359.366 88.3531 359.09 88.009C358.815 87.6649 358.401 87.3896 357.988 87.1832C357.506 86.9767 357.024 86.839 356.473 86.839C355.922 86.839 355.371 86.9767 354.957 87.1832C354.475 87.3896 354.131 87.6649 353.855 88.009C353.58 88.3531 353.304 88.766 353.166 89.2478C353.029 89.7295 352.96 90.2113 352.96 90.693C352.96 91.1748 352.96 91.7254 353.166 92.1383C353.304 92.6201 353.58 93.033 353.855 93.3771C354.131 93.7212 354.544 93.9965 354.957 94.203C355.439 94.4094 355.922 94.5471 356.473 94.5471C357.024 94.5471 357.575 94.4094 357.988 94.203C358.47 93.9965 358.815 93.7212 359.09 93.3771C359.366 93.033 359.641 92.6201 359.779 92.1383C359.917 91.6566 359.985 91.1748 359.985 90.693Z" fill="white"/>
<path d="M369.422 85.6691C370.042 85.2561 370.731 85.0497 371.557 85.0497C372.384 85.0497 372.935 85.1873 373.555 85.5314C374.106 85.8755 374.588 86.4261 374.932 87.1832C375.277 86.4949 375.828 85.9444 376.448 85.6003C377.068 85.2561 377.825 85.0497 378.583 85.0497C379.341 85.0497 379.892 85.1873 380.374 85.3938C380.856 85.6003 381.269 85.9444 381.614 86.3573C381.958 86.7702 382.165 87.1832 382.371 87.7337C382.509 88.2843 382.578 88.8349 382.578 89.4543V96.1299H380.443V90.1425C380.443 89.7295 380.443 89.3166 380.305 88.9037C380.305 88.4908 380.098 88.1467 379.892 87.8714C379.685 87.5961 379.478 87.3208 379.134 87.1143C378.858 86.9079 378.445 86.839 377.963 86.839C377.481 86.839 377.068 86.839 376.723 87.1143C376.379 87.3896 376.103 87.5961 375.897 87.9402C375.69 88.2843 375.483 88.6284 375.414 89.0413C375.414 89.4543 375.277 89.8672 375.277 90.2801V96.0611H373.141V89.6607C373.141 89.2478 373.141 88.8349 373.004 88.4908C373.004 88.1467 372.797 87.8714 372.59 87.5961C372.384 87.3208 372.177 87.1831 371.902 86.9767C371.626 86.839 371.282 86.7702 370.8 86.7702C370.042 86.7702 369.353 87.1143 368.802 87.7337C368.251 88.3531 368.044 89.2478 368.044 90.2801V95.9923H365.909V85.2561H367.907V86.9767C368.182 86.4261 368.595 85.9444 369.215 85.5314L369.422 85.6691Z" fill="white"/>
<path d="M389.19 101.567H387.055V85.325H389.121V86.9767C389.466 86.4261 389.948 85.9444 390.637 85.5315C391.326 85.1185 392.083 84.9809 392.979 84.9809C393.874 84.9809 394.494 85.1185 395.183 85.3938C395.872 85.6691 396.423 86.082 396.905 86.5638C397.387 87.0455 397.731 87.6649 398.007 88.3532C398.282 89.0414 398.42 89.7984 398.42 90.5554C398.42 91.3125 398.282 92.0695 398.007 92.7577C397.731 93.4459 397.387 94.0653 396.905 94.5471C396.423 95.0288 395.872 95.4418 395.183 95.7859C394.494 96.0612 393.736 96.1988 392.91 96.1988C392.083 96.1988 391.394 96.0612 390.706 95.7171C390.017 95.373 389.466 94.8912 389.121 94.3406V101.567H389.19ZM396.285 90.6931C396.285 90.2113 396.285 89.7296 396.078 89.2478C395.941 88.7661 395.665 88.3531 395.389 88.009C395.114 87.6649 394.701 87.3896 394.287 87.1144C393.874 86.9079 393.323 86.7703 392.703 86.7703C392.083 86.7703 391.67 86.9079 391.188 87.1144C390.775 87.3208 390.361 87.5961 390.017 88.009C389.672 88.3531 389.466 88.7661 389.259 89.2478C389.053 89.7296 388.984 90.2113 388.984 90.6931C388.984 91.1748 388.984 91.7254 389.259 92.1383C389.466 92.6201 389.672 93.033 390.017 93.3771C390.361 93.7212 390.706 93.9965 391.188 94.203C391.601 94.4095 392.152 94.5471 392.703 94.5471C393.254 94.5471 393.805 94.4095 394.287 94.203C394.701 93.9965 395.114 93.7212 395.389 93.3083C395.665 92.9642 395.941 92.5513 396.078 92.0695C396.216 91.5878 396.285 91.106 396.285 90.6243V90.6931Z" fill="white"/>
<path d="M409.028 89.1102C409.028 88.2843 408.752 87.7337 408.27 87.3208C407.788 86.9079 407.168 86.7702 406.341 86.7702C405.515 86.7702 405.17 86.9079 404.619 87.1143C404.068 87.3208 403.655 87.6649 403.242 88.009L402.14 86.6326C402.691 86.1508 403.311 85.7379 404.068 85.4626C404.826 85.1873 405.653 85.0497 406.548 85.0497C407.443 85.0497 407.994 85.1873 408.545 85.3938C409.097 85.6003 409.579 85.9444 409.923 86.2885C410.267 86.7014 410.543 87.1143 410.75 87.5961C410.956 88.0778 411.025 88.6972 411.025 89.2478V95.0976C411.025 95.5106 411.025 95.8547 411.163 96.0611H409.234C409.097 95.5794 409.028 95.0288 409.028 94.5471C408.614 95.0976 408.132 95.5794 407.512 95.8547C406.892 96.1988 406.204 96.3364 405.377 96.3364C404.55 96.3364 404.482 96.3364 404.068 96.1988C403.586 96.0611 403.173 95.9235 402.829 95.6482C402.415 95.3729 402.14 95.0288 401.864 94.6159C401.589 94.2029 401.52 93.6524 401.52 93.033C401.52 92.4136 401.726 91.5877 402.209 91.106C402.622 90.6242 403.242 90.2801 403.931 90.0048C404.619 89.7295 405.446 89.5919 406.341 89.5231C407.237 89.4543 408.132 89.3854 409.028 89.3854V89.1102ZM408.477 90.9683H406.823C406.272 90.9683 405.721 91.106 405.308 91.2436C404.826 91.3813 404.482 91.5877 404.137 91.863C403.862 92.1383 403.655 92.4824 403.655 92.9642C403.655 93.4459 403.655 93.5147 403.862 93.79C404.068 94.0653 404.137 94.203 404.344 94.3406C404.55 94.4782 404.757 94.5471 405.033 94.6159C405.308 94.6159 405.584 94.6847 405.859 94.6847C406.892 94.6847 407.65 94.4094 408.132 93.79C408.683 93.1706 408.959 92.4136 408.959 91.5189V90.9683H408.408H408.477Z" fill="white"/>
<path d="M417.362 85.325V87.0455C417.5 86.7703 417.706 86.495 417.913 86.2197C418.12 85.9444 418.395 85.7379 418.74 85.5315C419.015 85.325 419.359 85.1874 419.773 85.1185C420.117 84.9809 420.53 84.9809 420.875 84.9809C421.564 84.9809 422.184 85.1185 422.666 85.325C423.148 85.5315 423.561 85.8756 423.906 86.2885C424.25 86.7014 424.457 87.1144 424.663 87.6649C424.801 88.2155 424.87 88.7661 424.87 89.3855V96.0612H422.735V88.8349C422.735 88.422 422.528 88.0779 422.39 87.8026C422.184 87.5273 421.977 87.252 421.633 87.0455C421.288 86.8391 420.875 86.7703 420.393 86.7703C419.566 86.7703 418.877 87.1144 418.326 87.7338C417.775 88.3532 417.5 89.2478 417.5 90.2801V95.9923H415.365V85.2562H417.431L417.362 85.325Z" fill="white"/>
<path d="M433.618 93.7901L436.579 85.325H438.852L433.618 98.6076C433.411 99.0893 433.204 99.4334 432.998 99.8464C432.791 100.19 432.515 100.535 432.24 100.741C431.964 101.016 431.62 101.154 431.207 101.292C430.793 101.429 430.38 101.498 429.829 101.498H429.14C428.934 101.498 428.658 101.498 428.452 101.36L428.658 99.5023C429.003 99.6399 429.347 99.7087 429.76 99.7087C430.174 99.7087 430.725 99.5711 431 99.227C431.276 98.8829 431.551 98.4699 431.758 97.9194L432.447 96.13L427.832 85.3938H430.242L433.618 93.8589V93.7901Z" fill="white"/>
<path fill-rule="evenodd" clip-rule="evenodd" d="M116.71 36.0143C106.874 14.136 85.019 0 61.0146 0C54.7052 0 48.5267 0.977266 42.5618 2.88362L47.6313 13.5923C51.9776 12.3535 56.4616 11.7203 61.0146 11.7203C70.1824 11.7203 78.9576 14.3011 86.5068 18.864L72.9376 67.0804L58.3007 36.2277L45.4065 67.2249L35.9838 45.1401L30.1497 57.5555L44.6557 91.6841L58.3558 61.3751L75.6032 98.2703L98.6778 29.2216C101.612 32.6834 104.099 36.5718 106.013 40.825C111.407 52.8343 111.806 66.2201 107.129 78.5254C103.548 87.9471 97.3071 95.8616 89.1931 101.477L94.2626 112.186C105.111 105.187 113.418 94.9669 118.088 82.6822C123.874 67.452 123.385 50.8798 116.71 36.0212V36.0143Z" fill="white"/>
<path fill-rule="evenodd" clip-rule="evenodd" d="M79.55 106.673C55.1253 116.57 26.9743 105.421 16.0845 81.2026C10.6913 69.1932 10.2986 55.8074 14.9687 43.5021C19.2461 32.2498 27.3119 23.1516 37.8435 17.5495L32.8635 6.91656C19.5629 13.8263 9.38255 25.2231 4.00996 39.3384C-1.77591 54.5686 -1.28686 71.134 5.38755 85.9994C15.5404 108.587 37.8297 122 61.1385 121.993C68.9563 121.993 76.8843 120.465 84.5093 117.286L79.5431 106.667L79.55 106.673Z" fill="white"/>
</svg>
